<?xml version="1.0" encoding="utf-8"?>
<!-- Generator: Adobe Illustrator 21.0.0, SVG Export Plug-In . SVG Version: 6.00 Build 0)  -->
<svg version="1.1" id="图层_1" xmlns="http://www.w3.org/2000/svg" xmlns:xlink="http://www.w3.org/1999/xlink" x="0px" y="0px"
	 viewBox="0 0 200 200" style="enable-background:new 0 0 200 200;" xml:space="preserve">
<style type="text/css">
	.st0{fill:#979797;}
</style>
<path class="st0" d="M36.1,163.3c0.8,0.8,1.8,1.2,2.8,1.2s2-0.4,2.8-1.2l57.2-57.2l57.2,57.2c0.8,0.8,1.8,1.2,2.8,1.2
	c1,0,2-0.4,2.8-1.2c1.6-1.6,1.6-4.1,0-5.7l-57.1-57.2l57.1-57.2c1.6-1.6,1.6-4.1,0-5.7c-1.6-1.6-4.1-1.6-5.7,0L98.9,94.9L41.7,37.7
	c-1.6-1.6-4.1-1.6-5.7,0c-1.6,1.6-1.6,4.1,0,5.7l57.1,57.2l-57.1,57.2C34.5,159.3,34.5,161.8,36.1,163.3z"/>
</svg>
